Coordinates
version=1
nRows=14
nColumns=36
inDegrees=yes

Units are S.I. units (second, meters, Newtons, ...)
If the header above contains a line with 'inDegrees', this indicates whether rotational values are in degrees (yes) or radians (no).

endheader
time	pelvis_tilt	pelvis_list	pelvis_rotation	pelvis_tx	pelvis_ty	pelvis_tz	hip_flexion_r	hip_adduction_r	hip_rotation_r	knee_angle_r	knee_angle_r_beta	ankle_angle_r	subtalar_angle_r	mtp_angle_r	hip_flexion_l	hip_adduction_l	hip_rotation_l	knee_angle_l	knee_angle_l_beta	ankle_angle_l	subtalar_angle_l	mtp_angle_l	lumbar_extension	lumbar_bending	lumbar_rotation	arm_flex_r	arm_add_r	arm_rot_r	elbow_flex_r	pro_sup_r	arm_flex_l	arm_add_l	arm_rot_l	elbow_flex_l	pro_sup_l
      6.75000000	    -13.20057147	      2.90868651	      8.80706634	      1.10943087	      0.73702027	      0.14952958	     61.22463810	      5.61333847	     -5.80644334	     83.40338531	      1.45566368	     28.29836579	    -27.42420057	     -7.49999987	     59.65032606	      3.10164775	      4.21511159	     85.29138944	      1.48861557	     26.17611977	    -15.81943821	     -7.49999987	    -47.00338747	     -1.93702023	      3.58421679	     38.01222557	      0.01633366	     21.07189257	     58.17966167	    100.04508997	     22.41140831	     -7.42461319	     20.62826214	     53.56455565	     88.34298384
      6.76666670	    -11.88599899	      3.38989936	      8.56129222	      1.11655386	      0.75190419	      0.15163813	     58.29560575	      5.59271666	     -5.13844756	     81.74927475	      1.42679401	     27.45985720	    -27.61811644	     -7.49999987	     56.53754521	      3.04835178	      3.85744457	     83.32873046	      1.45436071	     25.83749695	    -15.21461309	     -7.49999987	    -47.39616428	     -2.15233750	      3.62791616	     37.37450164	      0.64342917	     22.09772179	     58.05438061	    100.45230126	     21.94530548	     -7.07333591	     20.61024184	     53.98678447	     89.05235140
      6.78333330	    -10.74905552	      3.99402091	      8.23407387	      1.11359800	      0.76540844	      0.15484034	     55.48512947	      5.54546805	     -4.38887590	     79.47177435	      1.38704412	     25.94863582	    -28.14636071	     -7.49999987	     53.41181908	      3.42972577	      3.66133391	     80.61411469	      1.40698173	     24.87089167	    -15.79565748	     -7.49999987	    -47.76800175	     -2.50640129	      3.75946241	     37.05812854	      1.09398698	     23.19124256	     57.35514301	    100.74246514	     21.98721996	     -6.94030512	     20.80095851	     54.63044596	     89.67168495
      6.80000000	     -9.50818669	      4.65267388	      8.17070092	      1.11518020	      0.78230241	      0.16465827	     52.47601762	      5.51570701	     -3.84352560	     76.87610685	      1.34174118	     23.98507782	    -28.96326454	     -7.49999987	     49.88186604	      3.95936411	      3.99784515	     77.03318733	      1.34448275	     22.71460235	    -16.87386156	     -7.49999987	    -48.46144368	     -2.99147850	      3.79364439	     37.27737067	      1.91621689	     24.33528152	     56.50606644	    100.91718439	     22.31994072	     -7.29192527	     21.27305807	     55.14986289	     90.22014499
      6.81666670	     -8.46228199	      5.28901896	      8.26142952	      1.11985497	      0.78909958	      0.16509804	     49.77523857	      5.26253105	     -3.47284025	     74.55873562	      1.30129542	     21.72302372	    -30.11312373	     -7.49999987	     46.78472769	      4.49067046	      4.38305317	     73.84965008	      1.28891955	     20.17891718	    -18.46401455	     -7.49999987	    -48.67817518	     -3.31151331	      3.82927342	     37.11695049	      2.41453130	     25.63643464	     56.24627431	    100.16519480	     22.02118752	     -7.94454664	     21.61831052	     56.39343567	     89.91730605
      6.83333330	     -6.69580480	      5.90274909	      8.36917959	      1.13173840	      0.80164827	      0.17500185	     45.65590203	      5.45158865	     -3.03945999	     71.75835316	      1.25241953	     20.63592602	    -30.16812622	     -7.49999987	     42.52392355	      4.56373003	      4.95603354	     70.41792366	      1.22902462	     18.35005226	    -18.83896364	     -7.49999987	    -49.51651439	     -3.90570249	      4.32105402	     36.66962990	      2.80455344	     26.16852028	     55.58935403	    100.10088758	     21.80309583	     -8.81548986	     21.60176495	     56.76589315	     90.19216770
      6.85000000	     -5.65094968	      6.18131265	      8.36989139	      1.13225503	      0.80874345	      0.17697382	     42.72411927	      5.67857780	     -3.00249873	     69.27875578	      1.20914239	     19.90468045	    -30.64021888	     -7.49999987	     39.69379210	      4.41484146	      5.36961384	     67.82828592	      1.18382692	     16.86305368	    -19.62247928	     -7.49999987	    -49.36211055	     -4.22048661	      4.97083019	     36.04698988	      2.81859010	     26.72230212	     55.60035069	     99.14298135	     20.89305641	     -9.85039548	     21.21837278	     57.22909423	     89.70844760
      6.86666670	     -4.39889024	      6.39424397	      8.33894644	      1.13547746	      0.81671927	      0.18115134	     39.51914623	      6.12790119	     -2.80223891	     66.59083905	      1.16222939	     19.91413340	    -30.56681981	     -7.49999987	     36.77144207	      4.10782052	      5.61608903	     65.45831940	      1.14246320	     15.66196100	    -19.92704310	     -7.49999987	    -49.35170928	     -4.42765603	      5.61676343	     35.57645273	      2.55058596	     27.41063004	     55.44810141	     93.31333080	     20.04224193	    -11.02261910	     20.48058356	     57.05622248	     84.93026153
      6.88333330	     -4.75792972	      6.40600724	      8.46969498	      1.13379645	      0.82271140	      0.18556731	     38.77452727	      6.44637354	     -2.74725329	     64.67252151	      1.12874844	     20.13589308	    -30.50124273	     -7.49999987	     36.39026676	      3.82319907	      5.68379758	     63.97490041	      1.11657265	     15.04038051	    -19.67786956	     -7.49999987	    -47.67623406	     -4.73224066	      6.31112507	     34.89969798	      1.98238283	     27.26040412	     55.44460137	     93.37024118	     19.30355035	    -12.72270771	     19.73978347	     56.72588135	     84.95148833
      6.90000000	     -4.82493003	      6.09729814	      8.37313246	      1.13286483	      0.82388645	      0.18361086	     38.16676383	      6.82421392	     -2.86134420	     63.08101413	      1.10097139	     19.97622019	    -30.33636931	     -7.49999987	     36.06921660	      3.47648596	      5.87534966	     62.90927339	      1.09797395	     13.27534832	    -20.92049180	     -7.49999987	    -46.50524735	     -4.31495923	      6.56730008	     34.65370335	      1.55733708	     25.83016550	     55.56036783	     95.98468840	     17.54250731	    -13.32095382	     13.57591319	     56.07882955	     88.54699891
      6.91666670	     -5.96840105	      5.72210446	      8.62490397	      1.13233315	      0.82100302	      0.18129988	     39.17604752	      6.79081168	     -3.21032744	     62.36906199	      1.08854548	     20.22859332	    -29.76992190	     -7.49999987	     37.38785033	      3.36828544	      5.95241726	     62.84750335	      1.09689586	     13.03540948	    -21.03008685	     -7.49999987	    -43.69044351	     -3.70964999	      7.22028483	     33.75617278	      0.09531860	     25.07425948	     56.36987543	     89.43473128	     16.52147665	    -14.34517348	     10.84785882	     53.98180383	     82.70480520
      6.93333330	     -7.77940936	      5.10705293	      8.91896057	      1.12723245	      0.82999200	      0.18495232	     40.89451622	      6.85203852	     -3.78994138	     61.06068258	      1.06570995	     19.66049828	    -29.73871551	     -7.49999987	     39.66408290	      3.31979578	      6.29052299	     62.33407765	      1.08793489	     11.22742842	    -22.16971122	     -7.49999987	    -40.62626094	     -2.88601813	      7.70538850	     33.23127113	     -1.59476160	     23.42150501	     56.94027777	     90.22095524	     15.91003737	    -15.32074516	      6.72804170	     51.07822849	     83.00981779
      6.95000000	     -8.43486190	      5.00995313	      9.29552709	      1.13213984	      0.83761746	      0.18988766	     40.80083031	      6.70300641	     -4.03848978	     59.02630717	      1.03020341	     18.33289263	    -29.57590958	     -7.49999987	     39.75431625	      3.43032862	      6.63003618	     60.88070869	      1.06256882	      9.75112089	    -22.62331195	     -7.49999987	    -39.02241571	     -2.49318559	      7.63592108	     32.87471994	     -2.84418018	     21.06649407	     56.87304281	     90.98837208	     15.76761921	    -16.92792416	      2.63980623	     47.71514672	     83.25334259
      6.96666670	     -9.23102552	      4.91435153	      9.84129099	      1.13599499	      0.83808764	      0.19069046	     40.65035482	      6.41420947	     -4.47088769	     57.29415525	      0.99997165	     17.00495031	    -29.57354496	     -7.49999987	     39.95242672	      3.61828533	      7.10412542	     59.52095303	      1.03883660	      8.09215285	    -23.49351287	     -7.49999987	    -37.15409304	     -2.08775818	      7.46215449	     31.88412284	     -4.44686705	     17.80243187	     57.49243303	     97.14814741	     15.05844432	    -18.68891326	     -3.18214573	     44.99166641	     87.53054875
